<?xml version="1.0" encoding="UTF-8" standalone="no"?>
<svg width="212px" height="186px" viewBox="0 0 212 186" version="1.1" xmlns="http://www.w3.org/2000/svg" xmlns:xlink="http://www.w3.org/1999/xlink">
    <!-- Generator: Sketch 3.6.1 (26313) - http://www.bohemiancoding.com/sketch -->
    <title>alien</title>
    <desc>Created with Sketch.</desc>
    <defs>
        <radialGradient cx="12.2414761%" cy="5.78759663%" fx="12.2414761%" fy="5.78759663%" r="95.5651475%" id="radialGradient-1">
            <stop stop-color="#FFFFFF" offset="0%"></stop>
            <stop stop-color="#FCFCFC" offset="6.16699502%"></stop>
            <stop stop-color="#FCFCFC" offset="6.16699502%"></stop>
            <stop stop-color="#7689A6" offset="100%"></stop>
        </radialGradient>
        <radialGradient cx="40.2659025%" cy="44.8788451%" fx="40.2659025%" fy="44.8788451%" r="167.637362%" id="radialGradient-2">
            <stop stop-color="#FFFFFF" offset="0%"></stop>
            <stop stop-color="#DCDCDC" offset="11.3207547%"></stop>
            <stop stop-color="#C1CBD3" offset="22.983871%"></stop>
            <stop stop-color="#828282" offset="67.7419355%"></stop>
            <stop stop-color="#121212" offset="100%"></stop>
        </radialGradient>
        <linearGradient x1="20.3428413%" y1="5.58743707%" x2="104.834151%" y2="89.6428571%" id="linearGradient-3">
            <stop stop-color="#FFFFFF" stop-opacity="0.5" offset="0%"></stop>
            <stop stop-color="#E5E5E5" offset="13.2194675%"></stop>
            <stop stop-color="#FFFFFF" offset="25.9745695%"></stop>
            <stop stop-color="#000000" offset="100%"></stop>
        </linearGradient>
        <linearGradient x1="102.802039%" y1="42.3375685%" x2="62.1873375%" y2="59.7036843%" id="linearGradient-4">
            <stop stop-color="#FFFFFF" stop-opacity="0.769304801" offset="0%"></stop>
            <stop stop-color="#000000" stop-opacity="0" offset="100%"></stop>
        </linearGradient>
        <path id="path-5" d="M81.1504283,23.6060802 C81.1504283,31.8282289 63.228948,38.4935973 41.1216817,38.4935973 C19.0144154,38.4935973 1.09293506,31.8282289 1.09293506,23.6060802 C1.09293506,19.9811672 10.1766596,9.94966124 10.8165485,9.01988234 C14.2867725,3.97753631 26.5697713,0.250434124 41.1899901,0.250434124 C54.8523127,0.250434124 66.4736451,3.50514658 70.7696689,8.04639614 C71.9185746,9.26088363 81.1504283,20.0044757 81.1504283,23.6060802 Z"></path>
        <linearGradient x1="-10.9125912%" y1="93.5532452%" x2="240.114654%" y2="-27.7426954%" id="linearGradient-6">
            <stop stop-color="#FFFFFF" stop-opacity="0.5" offset="0%"></stop>
            <stop stop-color="#000000" offset="100%"></stop>
        </linearGradient>
        <ellipse id="path-7" cx="41.326607" cy="11.6550917" rx="31.3535746" ry="11.677823"></ellipse>
        <linearGradient x1="126.911372%" y1="75.1592357%" x2="-53.1361341%" y2="182.165611%" id="linearGradient-8">
            <stop stop-color="#FFFFFF" stop-opacity="0.5" offset="0%"></stop>
            <stop stop-color="#030303" stop-opacity="0.993126008" offset="100%"></stop>
            <stop stop-color="#000000" offset="100%"></stop>
        </linearGradient>
        <ellipse id="path-9" cx="41.326607" cy="11.6550917" rx="28.7578538" ry="10.721744"></ellipse>
        <linearGradient x1="28.1463372%" y1="-6.44725995%" x2="61.2234915%" y2="116.323248%" id="linearGradient-10">
            <stop stop-color="#B3E855" offset="0%"></stop>
            <stop stop-color="#E0F0FF" stop-opacity="0" offset="100%"></stop>
        </linearGradient>
        <linearGradient x1="-7.03627412%" y1="13.2786885%" x2="106.147006%" y2="91.6393443%" id="linearGradient-11">
            <stop stop-color="#FBDA61" offset="0%"></stop>
            <stop stop-color="#F76B1C" offset="100%"></stop>
        </linearGradient>
        <linearGradient x1="-10.8286515%" y1="63.2768717%" x2="113.220961%" y2="65.4098332%" id="linearGradient-12">
            <stop stop-color="#000000" offset="0%"></stop>
            <stop stop-color="#FFFFFF" offset="17.0212766%"></stop>
            <stop stop-color="#FFFFFF" offset="35.6983418%"></stop>
            <stop stop-color="#AFAFAF" offset="36.200574%"></stop>
            <stop stop-color="#D7D7D7" offset="86.8421053%"></stop>
            <stop stop-color="#000000" offset="100%"></stop>
        </linearGradient>
        <radialGradient cx="60.5181473%" cy="68.1350764%" fx="60.5181473%" fy="68.1350764%" r="54.8424705%" id="radialGradient-13">
            <stop stop-color="#363636" offset="0%"></stop>
            <stop stop-color="#000000" offset="100%"></stop>
        </radialGradient>
        <filter x="-50%" y="-50%" width="200%" height="200%" filterUnits="objectBoundingBox" id="filter-14">
            <feOffset dx="0" dy="3" in="SourceAlpha" result="shadowOffsetInner1"></feOffset>
            <feGaussianBlur stdDeviation="4" in="shadowOffsetInner1" result="shadowBlurInner1"></feGaussianBlur>
            <feComposite in="shadowBlurInner1" in2="SourceAlpha" operator="arithmetic" k2="-1" k3="1" result="shadowInnerInner1"></feComposite>
            <feColorMatrix values="0 0 0 0 1   0 0 0 0 0.469827586   0 0 0 0 0  0 0 0 0.7 0" in="shadowInnerInner1" type="matrix" result="shadowMatrixInner1"></feColorMatrix>
            <feMerge>
                <feMergeNode in="SourceGraphic"></feMergeNode>
                <feMergeNode in="shadowMatrixInner1"></feMergeNode>
            </feMerge>
        </filter>
        <path id="path-15" d="M3.73736502,44.4020787 C3.76633659,45.2853289 1.9383396,47.3826165 1.96835378,48.299868 C1.9908808,48.9883077 3.87121969,48.4900764 3.894206,49.1941062 C4.16855953,57.5970654 4.47171729,67.0016487 4.71034486,74.810026 C4.74991022,76.104685 3.13126623,76.3031612 3.16685818,77.4982167 C3.18991154,78.2722693 4.86847754,80.0752462 4.88956984,80.7993265 C5.04226449,86.0412011 5.140542,89.8892804 5.140542,91.1227732 C5.140542,96.6505225 16.7036223,100.043532 29.4635726,100.043532 C41.9709607,100.043532 53.7866032,95.6454771 53.7866032,91.1227732 C53.7866032,90.1521646 53.8657363,86.6722956 54.0289004,81.8465322 C54.0564451,81.0318651 55.9154195,79.436719 55.9477774,78.5509359 C55.9691312,77.9663857 54.1625033,78.1096912 54.1859703,77.4982161 C54.3079391,74.3200903 54.4585416,70.8000193 54.6387288,67.1638526 C54.6732178,66.4678658 57.1072821,67.123467 57.1439455,66.4205572 C57.1930937,65.4782907 54.8457103,63.1753856 54.898794,62.2273398 C54.9460674,61.3830621 57.0963351,64.871246 57.1439455,64.024433 C57.1974818,63.0722203 55.4872575,58.228117 55.5408069,57.279357 C56.3542244,42.8676707 57.1439455,29.2608902 57.1439455,28.8109448 C57.1439455,24.8508095 55.9107649,21.1112722 53.8279373,17.805306 C53.3792261,17.0930894 56.471521,17.5205819 55.9477774,16.8507403 C55.6064092,16.4141476 51.669478,14.8674218 51.2989253,14.4503253 C50.8583256,13.9543834 49.9969483,12.6748025 49.5183736,12.2082491 C48.7704174,11.4790807 52.1284626,9.86427307 51.2989231,9.21309417 C50.8473606,8.85862285 46.6354176,10.2368467 46.1627987,9.90721692 C45.4451474,9.40668833 43.4002255,4.87830282 42.6404068,4.43859576 C41.7608147,3.9295758 43.5653809,8.28660727 42.6404068,7.86527418 C38.9068402,6.1646047 33.4466428,4.43859576 29.4635726,4.43859576 C16.0303337,4.43859576 3.16685818,13.4240325 3.16685818,26.8845092 C3.16685818,27.1242369 3.4160606,34.6065388 3.73736502,44.4020787 Z"></path>
        <radialGradient cx="34.5412038%" cy="30.6983808%" fx="34.5412038%" fy="30.6983808%" r="78.795337%" id="radialGradient-16">
            <stop stop-color="#FFFFFF" offset="0%"></stop>
            <stop stop-color="#ECF6FF" offset="63.7556401%"></stop>
            <stop stop-color="#C1D9F0" offset="80.0148486%"></stop>
            <stop stop-color="#F3F3F3" offset="100%"></stop>
        </radialGradient>
        <filter x="-50%" y="-50%" width="200%" height="200%" filterUnits="objectBoundingBox" id="filter-17">
            <feMorphology radius="1" in="SourceAlpha" operator="dilate" result="shadowSpreadOuter1"></feMorphology>
            <feOffset dx="4" dy="5" in="shadowSpreadOuter1" result="shadowOffsetOuter1"></feOffset>
            <feGaussianBlur stdDeviation="0" in="shadowOffsetOuter1" result="shadowBlurOuter1"></feGaussianBlur>
            <feColorMatrix values="0 0 0 0 0.976470588   0 0 0 0 0.701960784   0 0 0 0 0.28627451  0 0 0 0.7 0" in="shadowBlurOuter1" type="matrix" result="shadowMatrixOuter1"></feColorMatrix>
            <feOffset dx="2" dy="3" in="SourceAlpha" result="shadowOffsetOuter2"></feOffset>
            <feGaussianBlur stdDeviation="0" in="shadowOffsetOuter2" result="shadowBlurOuter2"></feGaussianBlur>
            <feColorMatrix values="0 0 0 0 0.960784314   0 0 0 0 0.423529412   0 0 0 0 0  0 0 0 0.7 0" in="shadowBlurOuter2" type="matrix" result="shadowMatrixOuter2"></feColorMatrix>
            <feOffset dx="0" dy="0" in="SourceAlpha" result="shadowOffsetInner1"></feOffset>
            <feGaussianBlur stdDeviation="3.5" in="shadowOffsetInner1" result="shadowBlurInner1"></feGaussianBlur>
            <feComposite in="shadowBlurInner1" in2="SourceAlpha" operator="arithmetic" k2="-1" k3="1" result="shadowInnerInner1"></feComposite>
            <feColorMatrix values="0 0 0 0 0.745098039   0 0 0 0 0.866666667   0 0 0 0 0.976470588  0 0 0 0.7 0" in="shadowInnerInner1" type="matrix" result="shadowMatrixInner1"></feColorMatrix>
            <feMerge>
                <feMergeNode in="shadowMatrixOuter1"></feMergeNode>
                <feMergeNode in="shadowMatrixOuter2"></feMergeNode>
                <feMergeNode in="SourceGraphic"></feMergeNode>
                <feMergeNode in="shadowMatrixInner1"></feMergeNode>
            </feMerge>
        </filter>
        <linearGradient x1="54.3865568%" y1="111.440393%" x2="5.2675457%" y2="100%" id="linearGradient-18">
            <stop stop-color="#F55E00" offset="0%"></stop>
            <stop stop-color="#F7B224" offset="100%"></stop>
        </linearGradient>
        <linearGradient x1="72.8625151%" y1="106.034987%" x2="45.3738942%" y2="71.3503025%" id="linearGradient-19">
            <stop stop-color="#F55E00" offset="0%"></stop>
            <stop stop-color="#F67E0D" offset="37.6623377%"></stop>
            <stop stop-color="#F7B224" offset="100%"></stop>
        </linearGradient>
        <linearGradient x1="50%" y1="0%" x2="50%" y2="100%" id="linearGradient-20">
            <stop stop-color="#569A51" offset="0%"></stop>
            <stop stop-color="#B3EA52" offset="100%"></stop>
        </linearGradient>
        <filter x="-50%" y="-50%" width="200%" height="200%" filterUnits="objectBoundingBox" id="filter-21">
            <feOffset dx="0" dy="0" in="SourceAlpha" result="shadowOffsetInner1"></feOffset>
            <feGaussianBlur stdDeviation="1.5" in="shadowOffsetInner1" result="shadowBlurInner1"></feGaussianBlur>
            <feComposite in="shadowBlurInner1" in2="SourceAlpha" operator="arithmetic" k2="-1" k3="1" result="shadowInnerInner1"></feComposite>
            <feColorMatrix values="0 0 0 0 0   0 0 0 0 0   0 0 0 0 0  0 0 0 0.35 0" in="shadowInnerInner1" type="matrix" result="shadowMatrixInner1"></feColorMatrix>
            <feMerge>
                <feMergeNode in="SourceGraphic"></feMergeNode>
                <feMergeNode in="shadowMatrixInner1"></feMergeNode>
            </feMerge>
        </filter>
        <linearGradient x1="88.7052374%" y1="100%" x2="-96.2947626%" y2="-97.8235372%" id="linearGradient-22">
            <stop stop-color="#F67B0E" offset="0%"></stop>
            <stop stop-color="#F21600" offset="100%"></stop>
        </linearGradient>
        <linearGradient x1="40.2511712%" y1="87.7338662%" x2="-62.7453337%" y2="-128.14315%" id="linearGradient-23">
            <stop stop-color="#FFA43B" offset="0%"></stop>
            <stop stop-color="#FE6E0B" offset="100%"></stop>
        </linearGradient>
        <linearGradient x1="0%" y1="32.2872221%" x2="77.0766901%" y2="32.2872221%" id="linearGradient-24">
            <stop stop-color="#9A9B9C" offset="0%"></stop>
            <stop stop-color="#C8C8C8" offset="77.0766901%"></stop>
            <stop stop-color="#DADADA" offset="79.6277105%"></stop>
            <stop stop-color="#E0E0E0" offset="100%"></stop>
        </linearGradient>
        <linearGradient x1="11.7418956%" y1="-14.2127458%" x2="86.5245042%" y2="104.048124%" id="linearGradient-25">
            <stop stop-color="#FFFFFF" offset="0%"></stop>
            <stop stop-color="#BCBCBC" offset="100%"></stop>
        </linearGradient>
        <linearGradient x1="90.5528066%" y1="44.5823654%" x2="-5.40379458%" y2="44.582364%" id="linearGradient-26">
            <stop stop-color="#6DA3CA" offset="0%"></stop>
            <stop stop-color="#275377" offset="100%"></stop>
        </linearGradient>
        <radialGradient cx="50%" cy="50%" fx="50%" fy="50%" r="50%" id="radialGradient-27">
            <stop stop-color="#FFFFFF" offset="0%"></stop>
            <stop stop-color="#FFFFFF" stop-opacity="0" offset="100%"></stop>
        </radialGradient>
        <linearGradient x1="18.2034278%" y1="38.9830508%" x2="-1.95161095%" y2="130.508475%" id="linearGradient-28">
            <stop stop-color="#F7B253" offset="0%"></stop>
            <stop stop-color="#F44B00" offset="100%"></stop>
        </linearGradient>
        <linearGradient x1="50%" y1="0%" x2="50%" y2="100%" id="linearGradient-29">
            <stop stop-color="#F9AB44" offset="0%"></stop>
            <stop stop-color="#F9A943" offset="100%"></stop>
        </linearGradient>
        <linearGradient x1="50%" y1="0%" x2="128.469375%" y2="100%" id="linearGradient-30">
            <stop stop-color="#FFFFFF" offset="0%"></stop>
            <stop stop-color="#BABABA" offset="100%"></stop>
        </linearGradient>
        <linearGradient x1="79.0764643%" y1="20.6252933%" x2="-22.7654444%" y2="86.386702%" id="linearGradient-31">
            <stop stop-color="#FFFFFF" offset="0%"></stop>
            <stop stop-color="#BDBDBD" offset="100%"></stop>
        </linearGradient>
    </defs>
    <g id="Page-1" stroke="none" stroke-width="1" fill="none" fill-rule="evenodd" opacity="0.503556437">
        <g id="Group-3" transform="translate(-9.000000, -18.000000)">
            <g id="alien" transform="translate(124.000000, 112.000000) scale(-1, 1) translate(-124.000000, -112.000000) ">
                <g style="mix-blend-mode: color;" transform="translate(123.685713, 111.747056) rotate(-12.000000) translate(-123.685713, -111.747056) translate(16.685713, 20.247056)">
                    <g id="Group-2" transform="translate(19.804667, 0.263854)">
                        <path d="M192.253334,146.169183 C192.253334,165.933826 149.310156,181.956234 96.3370622,181.956234 C43.3639682,181.956234 0.420790718,165.933826 0.420790718,146.169183 L0.420790718,139.238592 C0.420790718,119.473949 43.3639682,103.451541 96.3370622,103.451541 C149.310156,103.451541 184.186379,130.543297 189.721587,133.008479 C195.256796,135.473661 192.253334,145.000145 192.253334,146.169183 Z" id="Oval-17" fill="#1F1F1F"></path>
                        <path d="M96.3370622,174.524775 C149.310156,174.524775 192.253334,158.502367 192.253334,138.737724 C192.253334,118.973081 149.310156,102.950672 96.3370622,102.950672 C43.3639682,102.950672 0.420790718,118.973081 0.420790718,138.737724 C0.420790718,158.502367 43.3639682,174.524775 96.3370622,174.524775 Z" id="Oval-11" fill="url(#radialGradient-1)"></path>
                        <path d="M171.562805,132.914835 C171.562805,148.783158 138.235414,161.959565 96.0510933,161.959565 C53.8667723,161.959565 20.7897543,148.783158 20.7897543,132.914835 C20.7897543,131.976256 22.7900601,128.590716 22.7900601,127.652138 C22.7900601,111.783815 52.5722558,128.843613 94.7565768,128.843613 C136.940898,128.843613 167.562193,111.783815 167.562193,127.652138 C167.562193,128.590716 171.562805,131.976256 171.562805,132.914835 Z" id="Oval-26" fill="#4E4E4C"></path>
                        <path d="M132.505075,169.65731 C154.508439,167.653837 190.513944,156.634735 190.513944,138.392033 C190.513944,120.149331 158.787995,105.624156 117.421737,105.624156 C76.0554796,105.624156 67.2660975,108.13857 67.2660975,125.138731 C67.2660975,142.138893 110.501711,171.660783 132.505075,169.65731 Z" id="Oval-13" stroke="#979797" stroke-width="0.5" fill="#353535" opacity="0.246210354"></path>
                        <path d="M96.3370622,158.899443 C138.395752,158.899443 172.491057,146.177425 172.491057,130.48402 C172.491057,114.790615 138.395752,100.315276 96.3370622,100.315276 C54.2783721,100.315276 20.1830671,114.790615 20.1830671,130.48402 C20.1830671,146.177425 54.2783721,158.899443 96.3370622,158.899443 Z" id="Oval-12" fill="url(#radialGradient-2)"></path>
                        <path d="M128.072703,103.319165 C153.969507,108.362451 171.901499,119.102922 171.901499,130.48402 C171.901499,145.751807 139.630499,158.207195 99.1514057,158.871565 C98.2705276,156.336805 97.2506266,153.817948 96.0884232,151.325595 C91.0225945,140.46189 83.6620273,130.97863 74.9573016,123.454009 C95.5480981,123.384492 114.244665,115.738373 128.072703,103.319165 Z" id="Oval-15" fill-opacity="0.318264246" fill="#494949"></path>
                        <g id="Socle" transform="translate(54.036264, 90.315188)">
                            <ellipse id="Oval-18" fill="#454444" cx="41.1216817" cy="25.3133643" rx="41.1216817" ry="15.3655566"></ellipse>
                            <g id="Oval-16">
                                <use fill="#505050" xlink:href="#path-5"></use>
                                <use fill="url(#linearGradient-3)" xlink:href="#path-5"></use>
                                <use fill="url(#linearGradient-4)" style="mix-blend-mode: screen;" xlink:href="#path-5"></use>
                            </g>
                            <g id="Oval-14">
                                <use fill="none" xlink:href="#path-7"></use>
                                <use fill="url(#linearGradient-6)" fill-rule="evenodd" xlink:href="#path-7"></use>
                            </g>
                            <g id="Oval-19">
                                <use fill="none" xlink:href="#path-9"></use>
                                <use fill="url(#linearGradient-8)" fill-rule="evenodd" xlink:href="#path-9"></use>
                            </g>
                        </g>
                        <g id="cockpit" transform="translate(60.065013, 0.449531)">
                            <path d="M35.682468,112.100925 C49.0091871,112.100925 64.6724375,107.526899 65.2440563,100.738482 L71.3070595,28.7356145 C72.6382484,12.9267126 56.6800712,0.111065467 35.663473,0.111065467 C14.6468748,0.111065467 -1.30695507,12.9267126 0.0295966985,28.7356145 L6.17939738,101.476228 C6.74084456,108.117096 22.3557489,112.100925 35.682468,112.100925 Z" id="Oval-2" stroke="#FFFFFF" stroke-width="2.5" fill-opacity="0.435405344" fill="#FCFCFC"></path>
                            <path d="M35.6637732,108.031596 C51.1284047,108.031596 62.5492377,104.166015 63.1820628,96.1980224 L69.2755521,28.8899201 C70.4602142,13.9736678 55.4117081,1.88165613 35.6637731,1.88165613 C15.915838,1.88165613 0.871433875,13.9736678 2.06115597,28.8899201 L8.679647,97.5292994 C9.16822446,103.654885 20.1991417,108.031596 35.6637732,108.031596 Z" id="Oval-3" stroke="#758E62" stroke-width="2" fill-opacity="0.50999999" fill="url(#linearGradient-10)" style="mix-blend-mode: multiply;"></path>
                            <ellipse id="Oval-20" fill="#454444" cx="35.6824906" cy="99.2641426" rx="26.0879486" ry="9.73824865"></ellipse>
                            <g id="Alien" transform="translate(6.070928, 7.623957)">
                                <g id="Oval-5" filter="url(#filter-14)">
                                    <use fill="url(#linearGradient-11)" xlink:href="#path-15"></use>
                                    <use fill-opacity="0.879999995" fill="url(#linearGradient-12)" style="mix-blend-mode: color-burn;" xlink:href="#path-15"></use>
                                    <use fill="url(#radialGradient-13)" style="mix-blend-mode: color-dodge;" xlink:href="#path-15"></use>
                                </g>
                                <path d="M27.205458,55.1240923 C35.7808303,55.1240923 42.7325432,48.1585488 42.7325432,39.5661153 C42.7325432,30.9736819 35.7808303,24.0081384 27.205458,24.0081384 C18.6300856,24.0081384 11.6783728,30.9736819 11.6783728,39.5661153 C11.6783728,48.1585488 18.6300856,55.1240923 27.205458,55.1240923 Z" id="Oval-6" fill="url(#radialGradient-16)" filter="url(#filter-17)"></path>
                                <path d="M41.3208646,47.0210516 C38.7922939,52.8200739 33.0173738,56.8727165 26.2977878,56.8727165 C19.5782017,56.8727165 13.8032816,52.8200739 11.2747109,47.0210516 C15.5087655,50.0556083 20.6951389,51.8414416 26.2977878,51.8414416 C31.9004367,51.8414416 37.0868101,50.0556083 41.3208646,47.0210516 Z" id="Oval-27" fill="url(#linearGradient-18)"></path>
                                <path d="M42.3247954,46.7136595 C39.7104877,51.9690235 33.7397555,55.6417308 26.7923264,55.6417308 C19.8448973,55.6417308 13.8741652,51.9690235 11.2598575,46.7136595 C15.6374774,49.4637265 20.9997068,51.0821379 26.7923264,51.0821379 C32.5849461,51.0821379 37.9471755,49.4637265 42.3247954,46.7136595 Z" id="Oval-29" fill="url(#linearGradient-19)"></path>
                                <ellipse id="Oval-7" fill="url(#linearGradient-20)" filter="url(#filter-21)" cx="21.9873136" cy="35.9665095" rx="7.4159213" ry="7.43067557"></ellipse>
                                <ellipse id="Oval-8" fill="#000000" cx="21.9100645" cy="36.0439124" rx="3.32171475" ry="3.32832343"></ellipse>
                                <path d="M19.6047009,35.5236783 C20.8791166,35.5236783 21.9122348,34.4885047 21.9122348,33.2115534 C21.9122348,31.9346021 20.8791166,30.8994285 19.6047009,30.8994285 C18.3302851,30.8994285 17.2971669,31.9346021 17.2971669,33.2115534 C17.2971669,34.4885047 18.3302851,35.5236783 19.6047009,35.5236783 Z" id="Oval-9" fill="#FFFFFF" opacity="0.469682836"></path>
                                <ellipse id="Oval-10" fill="#FFFFFF" cx="20.1648489" cy="33.4758117" rx="0.884423186" ry="0.886182781"></ellipse>
                            </g>
                            <path d="M8.54465276,66.3315384 C9.73883115,79.0526298 10.6285018,92.0740014 12.3971764,93.844592 C14.4426832,95.8923149 15.4629145,99.7569334 17.5263682,97.9863427 C19.5898219,96.2157521 13.8740347,62.7814663 12.3971764,47.6936602 C11.1579908,35.0339548 17.5263682,27.3960623 26.0767763,19.1333055 C30.4182566,14.9378805 30.2036842,9.69015486 24.3081026,7.62446575 C18.412521,5.55877665 6.03179959,16.4155689 6.03179959,27.3960615 C6.03179959,36.8392121 7.35047438,53.6104469 8.54465276,66.3315384 Z" id="Oval-4" fill-opacity="0.920000076" fill="#FFFFFF" opacity="0.529850746"></path>
                            <path d="M38.349219,8.80041415 C40.7074517,12.6366939 43.9500216,11.1612017 43.9500216,9.98080792 C43.9500216,8.80041415 44.3921902,5.55433126 42.7709053,5.55433126 C41.1496203,5.55433126 35.9909864,4.96413438 38.349219,8.80041415 Z" id="Path-1" fill="#FFFFFF" opacity="0.441173041"></path>
                            <path d="M18.1408524,14.4213615 C20.4990851,18.2576413 23.741655,16.7821491 23.741655,15.6017553 C23.741655,14.4213615 24.1838236,11.1752786 22.5625386,11.1752786 C20.9412537,11.1752786 15.7826198,10.5850817 18.1408524,14.4213615 Z" id="Path-2" fill="#FFFFFF"></path>
                        </g>
                    </g>
                    <path d="M84.1564566,105.81681 C84.1564566,105.81681 81.5893726,105.393517 78.1466601,104.620284 C77.1142509,104.388405 74.9563867,101.821713 73.8121035,101.528873 C73.0022489,101.321618 74.6389757,103.157624 73.8121035,102.921526 C69.3855532,101.657606 63.5304049,100.235742 61.5605247,98.2729073 C58.0950352,94.8198117 63.3025386,85.462338 63.9062435,80.0627333 C63.9711563,79.4821458 64.8613122,77.5523773 64.8032673,77.0755671 C64.7365877,76.5278281 63.4475395,78.3960719 63.1717988,78.0200464 C62.9622083,77.7342294 62.7891887,75.5252018 62.4333696,75.3574924 C61.8558639,75.0852947 62.1419904,77.2089772 61.5605255,77.0755671 C61.1032179,76.9706433 59.7481287,73.59975 59.2861415,73.5720558 C58.8536194,73.546128 60.7961348,76.836689 57.3993606,74.1741351 C55.8659247,72.9721547 54.1762327,74.0262154 48.2428395,78.0200462 C42.3094462,82.0138771 33.6219421,80.6826003 32.4468013,84.5285117 C31.6398209,87.1695362 35.8372296,90.2973788 35.8372296,90.2973788 C35.8372296,90.2973788 39.4367447,89.1979684 44.8460651,86.5993871 C49.131573,84.5406737 57.2985842,78.1352225 58.4395074,80.0627336 C59.9408165,82.5990918 56.6684835,90.4921287 54.7669751,94.7286126 C54.4198495,95.5019944 53.1576288,95.3716192 52.9947452,96.1654507 C52.8253852,96.9908459 54.7571543,98.8369401 54.7669751,99.6099616 C54.780458,100.671226 52.4301299,99.5002261 52.9947452,100.49748 C53.2482259,100.945191 55.4924095,102.442305 55.8773078,102.921526 C60.864868,109.13133 76.0330774,117.60793 79.2828242,118.537899 C82.7833594,119.539636 85.6552772,117.31055 87.4055448,113.804472 C89.1558124,110.298395 84.1564566,105.81681 84.1564566,105.81681 Z" id="Path-24" fill="url(#linearGradient-22)"></path>
                    <path d="M82.8140127,106.425824 C82.8140127,106.425824 67.5314835,104.333194 61.245538,100.799675 C60.6651979,100.473449 59.7111095,97.879804 59.3452356,97.541398 C58.642665,96.8915726 56.0931268,97.1352598 59.3452355,100.799675 C60.8172296,102.45829 61.2561934,102.087936 64.7899977,103.610149 C65.4760467,103.90567 67.5012247,105.240208 68.1975334,105.51808 C68.6931104,105.715848 67.7062674,106.23876 68.1975334,106.425824 C68.9578367,106.715333 71.0772544,106.818303 71.8031084,107.077703 C72.2223174,107.227516 70.4451094,108.353158 70.8451167,108.491499 C71.2564459,108.633755 73.2725232,109.107294 73.6574935,109.236297 C74.5688125,109.541677 73.6902365,110.194088 74.3959227,110.414454 C75.125108,110.642158 76.633039,109.115757 77.0542654,109.236298 C80.3193575,110.170658 83.8748149,116.067871 85.507361,112.797609 C87.139907,109.527347 82.8140127,106.425824 82.8140127,106.425824 Z" id="Path-26" fill="url(#linearGradient-23)"></path>
                    <g id="Group" transform="translate(36.366947, 64.614735) rotate(25.000000) translate(-36.366947, -64.614735) translate(10.366947, 34.614735)">
                        <g id="Oval-47-+-Oval-47" transform="translate(25.117861, 31.733173)">
                            <path d="M7.83149438,2.8097798 C5.51578506,0.211680801 3.98276562,0.806223061 2.57738242,2.08454806 C1.17199923,3.36287307 0.426442307,4.84090514 2.74215162,7.43900414 C2.84584247,7.55533959 16.8641501,24.4041721 16.8641501,24.4041721 C18.6605177,25.2985389 20.5146602,24.910573 21.8443835,23.7010677 C23.1741068,22.4915623 24.3754056,20.2060741 23.0788118,18.7513669 C23.0788118,18.7513669 7.93518523,2.92611526 7.83149438,2.8097798 L7.83149438,2.8097798 Z" id="Oval-47" fill="url(#linearGradient-24)"></path>
                            <path d="M3.74157148,3.56655659 C5.10351297,2.38076437 5.79939483,0.94917762 5.29586711,0.369018103 C4.7923394,-0.211141415 3.28007782,0.279820903 1.91813633,1.46561313 C0.556194844,2.65140536 -0.139687013,4.0829921 0.363840701,4.66315162 C0.867368415,5.24331114 2.37963,4.75234882 3.74157148,3.56655659 L3.74157148,3.56655659 Z" id="Oval-47" fill="#9A9B9C"></path>
                        </g>
                        <path d="M20.0316114,41.7067082 C28.8714808,40.091832 32.8961719,32.1442378 32.8961719,22.7390934 C32.8961719,13.333949 29.8397594,6.37399777 21.8202662,4.89925844 C13.800773,3.4245191 4.01981416,8.3165484 2.75817553,20.6570048 C1.4965369,32.9974613 11.1917419,43.3215845 20.0316114,41.7067082 Z" id="Oval-42" fill="#FFFFFF"></path>
                        <path d="M20.4868375,41.4282528 C28.0709355,41.4282528 34.2190617,33.1199175 34.2190617,22.8710666 C34.2190617,12.6222156 28.0709355,4.31388029 20.4868375,4.31388029 C12.9027394,4.31388029 5.73651016,12.6222159 5.73651016,22.8710669 C5.73651016,33.1199178 12.9027394,41.4282528 20.4868375,41.4282528 Z" id="Oval-41" fill="url(#linearGradient-25)"></path>
                        <path d="M19.811351,36.8442921 C25.7782517,36.8442921 30.6153804,30.3075871 30.6153804,22.2441529 C30.6153804,14.1807187 25.7782517,7.64401369 19.811351,7.64401369 C13.8444504,7.64401369 9.00732167,14.1807187 9.00732167,22.2441529 C9.00732167,30.3075871 13.8444504,36.8442921 19.811351,36.8442921 Z" id="Oval-40" stroke="#979797" stroke-width="0.5" fill="url(#linearGradient-26)"></path>
                        <path d="M16.1047167,24.7731106 C18.3361766,24.7731106 20.1451322,22.9612907 20.1451322,20.7262977 C20.1451322,18.4913046 18.3361766,16.6794848 16.1047167,16.6794848 C13.8732568,16.6794848 12.0643012,18.4913046 12.0643012,20.7262977 C12.0643012,22.9612907 13.8732568,24.7731106 16.1047167,24.7731106 Z" id="Oval-43" fill="#FFFFFF" opacity="0.381005131"></path>
                        <path d="M23.7020267,13.3377411 C23.7310841,13.7600585 23.7459386,14.1879424 23.7459386,14.6205128 C23.7459386,22.1802622 19.2090535,28.3086499 13.6125221,28.3086499 C12.6779561,28.3086499 11.7729391,28.1377553 10.9136633,27.8178385 C10.2693363,26.197848 9.9038172,24.3454096 9.9038172,22.3776519 C9.9038172,16.0201935 13.7191631,10.8664551 18.4256307,10.8664551 C20.418094,10.8664551 22.250849,11.7901167 23.7020267,13.3377411 Z" id="Oval-48" fill="#FFFFFF" opacity="0.381005131"></path>
                        <path d="M23.7426503,29.9052595 C24.5021579,29.9052595 25.1178605,29.288582 25.1178605,28.5278718 C25.1178605,27.7671616 24.5021579,27.1504841 23.7426503,27.1504841 C22.9831427,27.1504841 22.3674401,27.7671616 22.3674401,28.5278718 C22.3674401,29.288582 22.9831427,29.9052595 23.7426503,29.9052595 Z" id="Oval-46" fill="#FFFFFF"></path>
                        <path d="M17.440123,21.8568603 C18.4487989,21.8568603 19.2664923,20.7518617 19.2664923,19.3887769 C19.2664923,18.0256921 18.4487989,16.9206936 17.440123,16.9206936 C16.4314472,16.9206936 15.6137538,18.0256921 15.6137538,19.3887769 C15.6137538,20.7518617 16.4314472,21.8568603 17.440123,21.8568603 Z" id="Oval-50" fill="#FFFFFF"></path>
                        <path d="M27.5943624,17.1150956 C30.83746,22.4077725 29.4382882,29.0673446 25.9894946,32.7657229 C24.0985384,34.7935251 21.924148,35.5742933 19.546342,35.2773482 C24.3763905,33.8206285 27.9866891,27.9939072 27.9866891,21.0276776 C27.9866891,19.6724265 27.8500462,18.3603036 27.5943624,17.1150956 Z" id="Oval-45" fill-opacity="0.232704937" fill="#FFFFFF"></path>
                    </g>
                    <path d="M29.418947,62.6971785 C34.1496956,62.6971785 37.9847251,58.8560768 37.9847251,54.1178378 C37.9847251,49.3795987 34.1496956,45.538497 29.418947,45.538497 C24.6881984,45.538497 20.8531689,49.3795987 20.8531689,54.1178378 C20.8531689,58.8560768 24.6881984,62.6971785 29.418947,62.6971785 Z" id="Oval-120" fill="url(#radialGradient-27)" opacity="0.602262127"></path>
                    <path d="M139.311722,98.2261437 C141.778018,98.7810288 143.814621,99.5979312 145.141175,100.79372 C150.141939,105.301534 156.392895,114.300714 156.392895,115.318899 C156.392895,126.104015 130.513939,130.350816 115.886702,130.350816 C111.637656,130.350816 106.481346,129.959864 101.303423,129.150191 C104.421583,122.811334 106.587254,115.97146 107.627233,108.793827 C107.827972,108.795452 108.029043,108.796269 108.230424,108.796269 C124.249088,108.796269 137.649278,104.28341 139.311722,98.2261437 Z" id="Oval-25" fill-opacity="0.198264271" fill="#494949"></path>
                    <path d="M152.503061,116.128291 C152.503061,116.128291 161.911105,99.0137083 178.525558,96.4946165 C195.140011,93.9755248 203.777586,94.5437676 204.987091,83.9657735 C206.196597,73.3877794 201.078132,61.2553835 198.085472,61.6978253 C195.092813,62.1402671 202.477845,80.905227 198.451387,84.9529517 C194.424929,89.0006764 178.777304,84.5137898 168.112248,88.9989583 C157.447192,93.4841268 149.69355,102.402836 147.765741,105.49165 C146.77271,107.082725 145.52856,106.971814 145.833907,110.407371 C146.139254,113.842928 148.025744,113.961551 149.426022,115.245965 C152.313842,117.894836 152.503061,116.128291 152.503061,116.128291 Z" id="Path-25" fill="url(#linearGradient-28)"></path>
                    <path d="M202.794119,67.8298071 C204.472306,72.2143065 205.633546,78.312061 204.987091,83.9657735 C203.777586,94.5437676 195.140011,93.9755248 178.525558,96.4946165 C161.911105,99.0137083 152.503061,116.128291 152.503061,116.128291 C152.503061,116.128291 150.430175,117.354705 147.542355,114.705833 C146.294516,113.561244 145.80683,112.262125 145.810892,110.906528 C146.022815,111.189449 146.272781,111.465191 146.564208,111.732505 C149.452027,114.381376 151.524914,113.154962 151.524914,113.154962 C151.524914,113.154962 160.932958,96.0403795 177.547411,93.5212878 C194.161864,91.002196 202.799438,91.5704388 204.008944,80.9924447 C204.519453,76.5276707 203.902618,71.7859758 202.794119,67.8298071 Z" id="Path-25" fill="#F56304"></path>
                    <path d="M115.377396,84.0571251 C123.378619,84.0571251 132.129957,77.0449696 132.129957,77.0449696 C132.129957,77.0449696 124.128733,81.803218 116.12751,81.803218 C108.126287,81.803218 100.875178,73.789326 100.875178,73.789326 C100.875178,73.789326 107.376172,84.0571251 115.377396,84.0571251 Z" id="Path-32" fill="#F55A00"></path>
                    <path d="M33.5959817,84.1458561 C31.3431959,82.7770214 32.7467882,88.4725069 33.1898456,89.2860651 C33.6329031,90.0996233 32.5187305,89.8395575 33.1898456,90.2845229 C33.8885041,90.7477502 34.8320569,90.2437337 35.2528322,90.5932182 C36.0595715,91.2632738 33.7295238,91.2073169 34.7405468,91.4309003 C35.9072538,91.6889126 37.0665989,90.8762015 37.0665989,90.8762015 C37.0665989,90.8762015 41.0796146,92.1081762 45.0791321,89.5085221 C45.1073114,89.4902057 46.0666564,88.6415138 46.112356,88.6204266 C46.7572301,88.3228628 46.9061408,88.5861503 47.3682624,87.9183857 C47.4087436,87.8598905 48.083135,86.870919 48.1430361,86.8084107 C48.9363258,85.9805938 50.6752753,85.7131877 51.060407,83.7190724 C52.9466602,73.9525273 42.0659947,75.3517143 42.0659947,75.3517143 C42.0659947,75.3517143 43.2474814,79.3455453 43.9859105,81.5643404 C41.7735075,83.3905448 39.0424527,87.4552337 33.5959817,84.1458561 Z" id="Path" fill="#FF8301"></path>
                    <path d="M38.1378978,86.7720084 C35.9595318,87.1787875 33.0427367,86.2173096 33.0427367,86.2173096 C33.0427367,86.2173096 35.40571,89.2866427 38.7655626,88.3251649 C39.8155756,88.0246862 44.5802168,85.7528561 45.965247,84.9969724 C46.7583966,84.564109 43.3128766,85.144931 44.4156992,84.6723868 C44.8694754,84.4779499 48.7804463,82.6583295 49.1393381,82.4576365 C49.9463721,82.0063418 45.0788098,83.9615346 46.9619653,80.0046835 C48.8451207,76.0478323 45.2268173,82.2604586 42.8638441,83.8136149 C40.5008708,85.3667711 40.3162638,86.3652293 38.1378978,86.7720084 Z" id="Path-6" fill="#FFA43B"></path>
                    <path d="M27.2777973,82.7534758 C23.5856516,86.7473068 32.9094734,82.3016275 36.1585619,81.2661899 C36.1585627,79.0473949 34.6817022,75.3494031 34.6817022,75.3494031 C29.2173265,76.6806801 30.969943,78.7596448 27.2777973,82.7534758 Z" id="Path-3" fill="#FFA43B"></path>
                    <path d="M28.0948185,83.7994825 C30.3232271,83.6620542 34.2131912,81.9714966 36.4395108,81.2620006 C36.1561519,80.1830607 35.8136955,78.8968953 35.5194873,77.7965327 C34.5793501,78.1255254 33.1090459,78.3607964 32.6517392,78.7803436 C32.159603,79.2318444 35.08142,78.5711333 34.5735957,79.0053744 C32.6262139,80.6705823 30.1988105,82.5266235 28.0948185,83.7994825 Z" id="Path-4" fill="#F55C0A"></path>
                    <path d="M114.968345,85.7184316 C122.923521,86.2774524 125.290211,82.5545203 115.870596,83.5224231 C106.450981,84.4903259 101.262321,74.4624191 101.262321,74.4624191 C101.262321,74.4624191 107.013168,85.1594108 114.968345,85.7184316 L114.968345,85.7184316 Z" id="Path-33" fill="url(#linearGradient-29)"></path>
                    <path d="M105.769023,78.6071271 C105.595303,77.6786687 107.449483,75.24302 108.200146,75.3247986 C108.950809,75.4065772 109.199759,80.4361307 108.602917,80.598493 C108.006075,80.7608553 105.942742,79.5355856 105.769023,78.6071271 L105.769023,78.6071271 Z" id="Path-36" fill="#F55A00"></path>
                    <path d="M105.178279,78.0154485 C105.00456,77.08699 106.85874,74.6513413 107.609403,74.7331199 C108.360066,74.8148985 108.609015,79.844452 108.012174,80.0068144 C107.415332,80.1691767 105.351999,78.943907 105.178279,78.0154485 L105.178279,78.0154485 Z" id="Path-38" fill="url(#linearGradient-30)"></path>
                    <path d="M122.147714,81.7608695 C122.489159,80.8838269 121.117419,78.1262162 120.365493,78.0580293 C119.613567,77.9898424 118.443313,82.8777527 118.9993,83.1551728 C119.555287,83.4325929 121.806269,82.6379122 122.147714,81.7608695 L122.147714,81.7608695 Z" id="Path-37" fill="#F55A00"></path>
                    <path d="M121.261599,81.7608695 C121.603044,80.8838269 120.231304,78.1262162 119.479378,78.0580293 C118.727452,77.9898424 117.557198,82.8777527 118.113185,83.1551728 C118.669172,83.4325929 120.920154,82.6379122 121.261599,81.7608695 L121.261599,81.7608695 Z" id="Path-39" fill="url(#linearGradient-31)"></path>
                </g>
            </g>
        </g>
    </g>
</svg>